<svg width="134" height="34" viewBox="0 0 134 34" fill="none" xmlns="http://www.w3.org/2000/svg">
<path d="M45.1324 24.04H47.6884C48.4564 24.04 48.9964 23.884 49.3084 23.572C49.6444 23.236 49.8124 22.684 49.8124 21.916V10.936C49.8124 10.168 49.6444 9.628 49.3084 9.316C48.9964 8.98 48.4564 8.812 47.6884 8.812H45.1324C44.3644 8.812 43.8244 8.98 43.5124 9.316C43.2004 9.628 43.0444 10.168 43.0444 10.936V21.916C43.0444 22.684 43.2004 23.236 43.5124 23.572C43.8244 23.884 44.3644 24.04 45.1324 24.04ZM51.7204 32.788H49.0924C48.4444 32.788 47.9764 32.536 47.6884 32.032L45.3484 28H44.3764C42.4804 28 41.0164 27.496 39.9844 26.488C38.9524 25.48 38.4364 24.028 38.4364 22.132V10.72C38.4364 8.824 38.9524 7.372 39.9844 6.364C41.0164 5.356 42.4804 4.852 44.3764 4.852H48.4084C50.3044 4.852 51.7684 5.356 52.8004 6.364C53.8324 7.372 54.3484 8.824 54.3484 10.72V22.132C54.3484 23.716 53.9644 25 53.1964 25.984C52.4524 26.968 51.3844 27.592 49.9924 27.856L52.2964 31.852C52.4164 32.14 52.4164 32.368 52.2964 32.536C52.1764 32.704 51.9844 32.788 51.7204 32.788ZM64.8605 28H63.6725C61.8245 28 60.4205 27.496 59.4605 26.488C58.5245 25.48 58.0565 24.028 58.0565 22.132V10.396C58.0565 9.892 58.3085 9.64 58.8125 9.64H61.8725C62.3765 9.64 62.6285 9.892 62.6285 10.396V21.916C62.6285 22.684 62.7845 23.236 63.0965 23.572C63.4325 23.884 63.9725 24.04 64.7165 24.04H66.0485C67.7045 24.04 68.5325 23.128 68.5325 21.304V10.396C68.5325 9.892 68.7845 9.64 69.2885 9.64H72.3125C72.8405 9.64 73.1045 9.892 73.1045 10.396V27.244C73.1045 27.748 72.8405 28 72.3125 28H69.2885C68.7845 28 68.5325 27.748 68.5325 27.244V26.056H68.3885C68.1245 26.704 67.6565 27.196 66.9845 27.532C66.3125 27.844 65.6045 28 64.8605 28ZM76.8523 6.544V3.412C76.8523 2.932 77.0923 2.692 77.5723 2.692H80.7043C81.1843 2.692 81.4243 2.92 81.4243 3.376V6.544C81.4243 7.024 81.1843 7.264 80.7043 7.264H77.5723C77.0923 7.264 76.8523 7.024 76.8523 6.544ZM76.8523 27.244V10.396C76.8523 9.892 77.0923 9.64 77.5723 9.64H80.6683C81.1723 9.64 81.4243 9.892 81.4243 10.396V27.244C81.4243 27.556 81.3643 27.76 81.2443 27.856C81.1483 27.952 80.9683 28 80.7043 28H77.6083C77.1043 28 76.8523 27.748 76.8523 27.244ZM96.8588 24.796V27.28C96.8588 27.544 96.7988 27.736 96.6788 27.856C96.5828 27.952 96.3908 28 96.1028 28H90.7388C88.8428 28 87.3788 27.496 86.3468 26.488C85.3148 25.48 84.7988 24.028 84.7988 22.132V15.508C84.7988 13.612 85.3148 12.16 86.3468 11.152C87.3788 10.144 88.8428 9.64 90.7388 9.64H96.1028C96.6068 9.64 96.8588 9.892 96.8588 10.396V12.88C96.8588 13.144 96.7988 13.336 96.6788 13.456C96.5828 13.552 96.3908 13.6 96.1028 13.6H91.4588C90.7148 13.6 90.1748 13.768 89.8388 14.104C89.5268 14.416 89.3708 14.956 89.3708 15.724V21.916C89.3708 22.684 89.5268 23.236 89.8388 23.572C90.1748 23.884 90.7148 24.04 91.4588 24.04H96.1028C96.6068 24.04 96.8588 24.292 96.8588 24.796ZM110.064 9.64H113.556C113.844 9.64 114.036 9.724 114.132 9.892C114.228 10.06 114.192 10.276 114.024 10.54L109.236 18.424V18.568L114.24 27.1C114.384 27.34 114.396 27.556 114.276 27.748C114.156 27.916 113.94 28 113.628 28H110.532C110.124 28 109.824 27.952 109.632 27.856C109.464 27.76 109.284 27.556 109.092 27.244L104.52 19.216C104.304 18.832 104.304 18.436 104.52 18.028L108.84 10.36C109.104 9.88 109.512 9.64 110.064 9.64ZM103.368 28H100.308C99.8036 28 99.5516 27.748 99.5516 27.244V3.448C99.5516 2.944 99.8036 2.692 100.308 2.692H103.368C103.872 2.692 104.124 2.944 104.124 3.448V27.244C104.124 27.748 103.872 28 103.368 28ZM120.3 28H117.24C116.736 28 116.484 27.748 116.484 27.244V5.608C116.484 5.104 116.736 4.852 117.24 4.852H125.808C127.68 4.852 129.144 5.368 130.2 6.4C131.256 7.432 131.784 8.884 131.784 10.756V13.564C131.784 16.276 130.716 18.076 128.58 18.964V19.108L132.432 27.136C132.648 27.712 132.444 28 131.82 28H128.904C128.472 28 128.16 27.952 127.968 27.856C127.776 27.76 127.62 27.556 127.5 27.244L123.9 19.468H121.488C121.2 19.468 121.056 19.6 121.056 19.864V27.244C121.056 27.748 120.804 28 120.3 28ZM121.452 15.796H124.98C125.748 15.796 126.312 15.64 126.672 15.328C127.032 14.992 127.212 14.464 127.212 13.744V10.936C127.212 10.192 127.032 9.652 126.672 9.316C126.312 8.98 125.748 8.812 124.98 8.812H121.452C121.188 8.812 121.056 8.944 121.056 9.208V15.4C121.056 15.664 121.188 15.796 121.452 15.796Z" fill="white"/>
<path d="M13.4583 9.2085V13.4585H9.20831V9.2085H13.4583ZM15.5833 7.0835H7.08331V15.5835H15.5833V7.0835ZM13.4583 20.5418V24.7918H9.20831V20.5418H13.4583ZM15.5833 18.4168H7.08331V26.9168H15.5833V18.4168ZM24.7916 9.2085V13.4585H20.5416V9.2085H24.7916ZM26.9166 7.0835H18.4166V15.5835H26.9166V7.0835ZM18.4166 18.4168H20.5416V20.5418H18.4166V18.4168ZM20.5416 20.5418H22.6666V22.6668H20.5416V20.5418ZM22.6666 18.4168H24.7916V20.5418H22.6666V18.4168ZM18.4166 22.6668H20.5416V24.7918H18.4166V22.6668ZM20.5416 24.7918H22.6666V26.9168H20.5416V24.7918ZM22.6666 22.6668H24.7916V24.7918H22.6666V22.6668ZM24.7916 20.5418H26.9166V22.6668H24.7916V20.5418ZM24.7916 24.7918H26.9166V26.9168H24.7916V24.7918ZM31.1666 9.91683H28.3333V5.66683H24.0833V2.8335H31.1666V9.91683ZM31.1666 31.1668V24.0835H28.3333V28.3335H24.0833V31.1668H31.1666ZM2.83331 31.1668H9.91665V28.3335H5.66665V24.0835H2.83331V31.1668ZM2.83331 2.8335V9.91683H5.66665V5.66683H9.91665V2.8335H2.83331Z" fill="#F8F8F8"/>
</svg>
